<svg id="Layer_1" data-name="Layer 1" xmlns="http://www.w3.org/2000/svg" viewBox="0 0 95.54 60.42"><defs><style>.cls-1{fill:#fff;stroke-width:5px;}.cls-1,.cls-2{stroke:#1a2360;stroke-miterlimit:10;}.cls-2{fill:none;stroke-width:2px;}</style></defs><title>logocalculator1</title><path class="cls-1" d="M84.06,35.05c-5.24-2.64-13.61-2.8-16.73-1.45-1-9.92-12.26-15.07-20.95-15.07-10.86,0-21,7.85-21,18.48C16.26,35.06,4.54,42.57,4.54,54.13c0,7.95,2.32,18.94,16.47,19.79,6,.36,11.37-1.89,13.57-5.19,2.24,3.19,8.55,5.16,12.65,5.21,5.67.07,11.18-2.06,13.16-4.88,3,3,9.65,4.88,15.72,4.88,10.84,0,19-8.53,19-21.8C95.08,44.29,90.8,38.44,84.06,35.05Z" transform="translate(-2.04 -16.03)"/><text x="-2.04" y="-16.03"/><polyline class="cls-2" points="26.51 27.16 31.7 39.4 31.7 20.73 58.92 20.73"/><line class="cls-1" x1="38.84" y1="42.73" x2="56.37" y2="25.2"/><line class="cls-1" x1="56.37" y1="42.73" x2="38.84" y2="25.2"/></svg>